# xmcd
#
# Track frame offsets:
#	150
#	16446
#	35424
#	54911
#	73582
#	79188
#	96791
#	101272
#	106751
#	123060
#	131720
#	136519
#	159585
#	165960
#	174027
#	189756
#	195362
#	211785
#	230764
#	250260
#
# Disc length: 3587 seconds
#
# Revision: 2
# Processed by: cddbd v1.5.2PL0 Copyright (c) Steve Scherf et al.
# Submitted via: EZCDAudioConverter 8.0.2.1
#
DISCID=ea0e0114
DTITLE=Hồ Vĩnh Khoa - Hot Boy Nổi Loạn
DYEAR=2012
DGENRE=Contemporary Pop
TTITLE0=Hồ Vĩnh Khoa - Lạc giữa thiên đường
TTITLE1=Hồ Vĩnh Khoa - Còn những đêm buồn
TTITLE2=Hồ Vĩnh Khoa - Yêu nhau
TTITLE3=Hồ Vĩnh Khoa - Bao ngày nhớ em
TTITLE4=Hồ Vĩnh Khoa - Nỗi buồn 1
TTITLE5=Hồ Vĩnh Khoa - Nỗi buồn 2
TTITLE6=Hồ Vĩnh Khoa - Niềm vui 1
TTITLE7=Hồ Vĩnh Khoa - Niềm vui 2
TTITLE8=Hồ Vĩnh Khoa - Yêu nhau
TTITLE9=Hồ Vĩnh Khoa - Còn những đêm buồn
TTITLE10=Hồ Vĩnh Khoa - Vịt con chào đời
TTITLE11=Hồ Vĩnh Khoa - Kịch tính 1
TTITLE12=Hồ Vĩnh Khoa - Kịch tính 2
TTITLE13=Hồ Vĩnh Khoa - Vịt con trở về
TTITLE14=Hồ Vĩnh Khoa - Còn những đêm buồn
TTITLE15=Hồ Vĩnh Khoa - Nỗi buồn 1 - Piano
TTITLE16=Soudtrack - Lạc giữa thiên đường
TTITLE17=Soudtrack - Còn những đêm buồn
TTITLE18=Soudtrack - Yêu nhau
TTITLE19=Soudtrack - Bao ngày nhớ em
EXTD=
EXTT0=
EXTT1=
EXTT2=
EXTT3=
EXTT4=
EXTT5=
EXTT6=
EXTT7=
EXTT8=
EXTT9=
EXTT10=
EXTT11=
EXTT12=
EXTT13=
EXTT14=
EXTT15=
EXTT16=
EXTT17=
EXTT18=
EXTT19=
PLAYORDER=
